<svg xmlns="http://www.w3.org/2000/svg" viewBox="0 0 64 64" id="umbrella">
  <path fill="#d29088" d="M40.167 56a1 1 0 00-1 1A3.085 3.085 0 0133 57V28a1 1 0 00-2 0V57a5.084 5.084 0 0010.167 0A1 1 0 0040.167 56zM32 7a1 1 0 01-1-1V3a1 1 0 012 0V6A1 1 0 0132 7z"></path>
  <path fill="#ff5b42" d="M32,6A26,26,0,0,0,6,32H6c0-2.209,3.239-4,6-4s5,1.791,5,4c0-2.209,2.239-4,5-4s5,1.791,5,4c0-2.209,2.239-4,5-4s5,1.791,5,4c0-2.209,2.239-4,5-4s5,1.791,5,4c0-2.209,2.239-4,5-4s6,1.791,6,4h0A26,26,0,0,0,32,6Z"></path>
  <path fill="#fce666" d="M33.165,6.029C32.778,6.012,32.391,6,32,6s-.778.012-1.165.029C29.27,6.337,17,9.4,17,30v2c0-2.209,2.239-4,5-4s5,1.791,5,4c0-2.209,2.239-4,5-4s5,1.791,5,4c0-2.209,2.239-4,5-4s5,1.791,5,4V30C47,9.4,34.73,6.337,33.165,6.029Z"></path>
  <path fill="#ff5b42" d="M33.043,6.026C32.7,6.013,32.35,6,32,6s-.7.013-1.043.026C30.531,6.315,27,9.327,27,30v2c0-2.209,2.239-4,5-4s5,1.791,5,4V30C37,9.327,33.469,6.315,33.043,6.026Z"></path>
</svg>
